HIERARCHY
ROOT Hips
{
	OFFSET 0.000000 0.000000 0.000000 
	CHANNELS 6 Xposition Yposition Zposition Zrotation Yrotation Xrotation
	JOINT LeftUpLeg
	{
		OFFSET 1.363060 -1.794630 0.839290 
		CHANNELS 3 Zrotation Yrotation Xrotation
		JOINT LeftLeg
		{
			OFFSET 2.448110 -6.726130 0.000000 
			CHANNELS 3 Zrotation Yrotation Xrotation
			JOINT LeftFoot
			{
				OFFSET 2.562200 -7.039590 0.000000 
				CHANNELS 3 Zrotation Yrotation Xrotation
				JOINT LeftToeBase
				{
					OFFSET 0.157640 -0.433110 2.322550 
					CHANNELS 3 Zrotation Yrotation Xrotation
					End Site
					{
						OFFSET 0.000000 0.000000 0.000000 
					}
				}
			}
		}
	}
	JOINT RightUpLeg
	{
		OFFSET -1.305520 -1.794630 0.839290 
		CHANNELS 3 Zrotation Yrotation Xrotation
		JOINT RightLeg
		{
			OFFSET -2.542530 -6.985550 0.000000 
			CHANNELS 3 Zrotation Yrotation Xrotation
			JOINT RightFoot
			{
				OFFSET -2.568260 -7.056230 0.000000 
				CHANNELS 3 Zrotation Yrotation Xrotation
				JOINT RightToeBase
				{
					OFFSET -0.164730 -0.452590 2.363150 
					CHANNELS 3 Zrotation Yrotation Xrotation
					End Site
					{
						OFFSET 0.000000 0.000000 0.000000 
					}
				}
			}
		}
	}
	JOINT Spine
	{
		OFFSET 0.028270 2.035590 -0.193380 
		CHANNELS 3 Zrotation Yrotation Xrotation
		JOINT Spine1
		{
			OFFSET 0.056720 2.048850 -0.042750 
			CHANNELS 3 Zrotation Yrotation Xrotation
			JOINT Neck1
			{
				OFFSET -0.054170 1.746240 0.172020 
				CHANNELS 3 Zrotation Yrotation Xrotation
				JOINT Head
				{
					OFFSET 0.104070 1.761360 -0.123970 
					CHANNELS 3 Zrotation Yrotation Xrotation
					End Site
					{
						OFFSET 0.000000 0.000000 0.000000 
					}
				}
			}
			JOINT LeftArm
			{
				OFFSET 3.362410 1.200890 -0.311210 
				CHANNELS 3 Zrotation Yrotation Xrotation
				JOINT LeftForeArm
				{
					OFFSET 4.983000 -0.000000 -0.000000 
					CHANNELS 3 Zrotation Yrotation Xrotation
					JOINT LeftHand
					{
						OFFSET 3.483560 -0.000000 -0.000000 
						CHANNELS 3 Zrotation Yrotation Xrotation
						JOINT LeftHandIndex1
						{
							OFFSET 0.715260 -0.000000 -0.000000 
							CHANNELS 3 Zrotation Yrotation Xrotation
							End Site
							{
								OFFSET 0.000000 0.000000 0.000000 
							}
						}
					}
				}
			}
			JOINT RightArm
			{
				OFFSET -3.136600 1.374050 -0.404650 
				CHANNELS 3 Zrotation Yrotation Xrotation
				JOINT RightForeArm
				{
					OFFSET -5.241900 -0.000000 -0.000000 
					CHANNELS 3 Zrotation Yrotation Xrotation
					JOINT RightHand
					{
						OFFSET -3.444170 -0.000000 -0.000000 
						CHANNELS 3 Zrotation Yrotation Xrotation
						JOINT RightHandIndex1
						{
							OFFSET -0.622530 -0.000000 -0.000000 
							CHANNELS 3 Zrotation Yrotation Xrotation
							End Site
							{
								OFFSET 0.000000 0.000000 0.000000 
							}
						}
					}
				}
			}
		}
	}
}
MOTION
Frames: 6
Frame Time: 0.041667
1.611459 17.409283 26.566792 -179.161002 -0.012847 -171.205347 -22.015738 -16.868893 -29.451497 0.938614 11.246217 27.031341 0.985910 10.360073 10.352293 0.070900 -1.717600 -4.725700 37.583804 -3.023465 13.510238 -3.482233 -10.908121 39.316423 -2.250463 -19.196353 19.979300 -0.316300 3.615300 -9.996700 -0.884662 7.908041 -3.583746 -2.495009 4.059240 9.801808 6.383613 -10.495821 13.290389 -1.013300 -3.781600 26.073300 -68.323431 28.347597 65.994029 129.210105 -54.519638 -89.715603 1.462423 -0.808456 17.795268 -7.125000 0.000000 0.000000 83.897400 -7.777267 64.868678 -131.361965 49.183693 -89.579267 -0.037743 -1.050462 5.539076 7.125000 0.000000 0.000000 
1.592957 17.270733 26.202605 -179.241660 -0.238093 -171.712592 -22.961247 -15.989196 -28.302901 1.331304 11.925801 29.262959 0.670709 10.693397 7.328936 0.034000 -1.189500 -3.270300 37.296130 -2.895177 12.008977 -4.436755 -12.094772 43.678870 -1.991796 -19.091437 17.611662 -0.345100 3.774600 -10.443400 -0.811450 7.487788 -3.538148 -2.440175 3.854390 9.803241 6.323327 -10.010203 13.191393 -1.024400 -3.616900 25.848200 -69.140866 27.915932 65.984146 129.109770 -54.553566 -89.621568 1.440348 -0.758137 17.013890 -7.125000 0.000000 0.000000 83.734552 -9.029911 64.985873 -130.759485 49.437907 -88.987182 -0.045935 -1.096146 5.129549 7.125000 0.000000 0.000000 
1.572860 17.150046 25.838525 -179.367154 -0.480293 -172.282946 -23.787783 -15.213443 -27.175729 1.731891 12.538055 31.341706 0.398218 10.764559 4.001236 0.092600 -1.962200 -5.401300 36.893566 -2.895870 10.692710 -5.354962 -13.083732 47.578791 -1.760148 -19.179794 15.460766 -0.413100 4.125500 -11.430100 -0.744673 7.084243 -3.509427 -2.326146 3.647919 9.639248 6.382003 -9.645059 13.202070 -0.863100 -3.552100 25.716700 -69.916879 27.383905 66.099728 128.583365 -54.716302 -89.165525 1.442561 -0.722479 16.851208 -7.125000 0.000000 0.000000 83.714554 -10.503227 64.679584 -130.152136 49.715077 -88.377158 -0.008630 -1.127716 3.545496 7.125000 0.000000 0.000000 
1.554465 17.071680 25.462217 -179.898175 -0.655982 -172.636333 -24.779514 -15.425946 -26.091658 2.079307 13.101574 33.205945 0.209337 12.246792 1.726241 0.079100 -1.813800 -4.991300 35.960872 -2.715588 9.000140 -6.290903 -13.956628 51.265786 -1.602857 -19.266527 13.977022 -0.432700 4.221200 -11.699900 -0.782254 6.703878 -3.512794 -2.539720 3.477082 9.407145 6.531361 -9.560859 13.098636 -0.743600 -3.505300 25.368900 -70.510981 26.565917 66.223662 127.715886 -54.966320 -88.444919 1.445761 -0.708690 16.975827 -7.125000 0.000000 0.000000 84.607839 -12.478878 63.766516 -128.641052 50.332459 -86.753095 -0.000934 -1.210240 4.370832 7.125000 0.000000 0.000000 
1.537558 16.964497 25.096542 179.631993 -0.813913 -173.038432 -25.803965 -15.235009 -24.888308 2.426805 13.575576 34.895823 0.034865 13.331156 -0.652883 0.078300 -1.805200 -4.967600 35.104324 -2.582426 7.462783 -7.262675 -14.754779 54.887035 -1.437769 -19.161019 12.387208 -0.467800 4.386800 -12.167600 -0.804293 6.391401 -3.496277 -2.641700 3.325473 9.249165 6.637039 -9.480000 13.013383 -0.677300 -3.456700 25.078300 -71.084398 25.637338 66.468681 126.918495 -55.182888 -87.774755 1.445453 -0.681934 16.773891 -7.125000 0.000000 0.000000 85.343878 -14.292899 62.732480 -127.313296 50.867282 -85.324190 0.020612 -1.279360 4.407303 7.125000 0.000000 0.000000 
1.523416 16.865183 24.732993 179.014703 -0.914284 -173.393092 -26.960864 -15.026687 -23.606374 2.726703 13.945907 36.286835 -0.116736 14.427055 -2.827533 0.082500 -1.852200 -5.097400 34.067389 -2.355994 5.782541 -8.271619 -15.486783 58.460911 -1.290254 -18.957749 10.909866 -0.503000 4.546700 -12.620200 -0.820692 6.043116 -3.469764 -2.617869 3.136078 9.134710 6.768833 -9.293746 12.881345 -0.570900 -3.376700 24.729500 -71.942446 24.555137 66.553011 125.922630 -55.454150 -86.920367 1.447676 -0.654108 16.698047 -7.125000 0.000000 0.000000 86.093921 -16.062416 61.485292 -125.648459 51.510701 -83.533168 0.045687 -1.355245 4.599903 7.125000 0.000000 0.000000 
